<svg xmlns="http://www.w3.org/2000/svg" style="isolation:isolate" viewBox="0 0 595.276 722.835"><defs><clipPath id="a"><path d="M0 0h595.276v722.835H0z"/></clipPath></defs><g clip-path="url(#a)"><linearGradient id="b" x1=".793" x2=".485" y1=".753" y2=".192" gradientTransform="matrix(598 0 0 632.439 0 91.5)" gradientUnits="userSpaceOnUse"><stop offset="0%" stop-color="#2196f3"/><stop offset="100%" stop-color="#25dcf4"/></linearGradient><path fill="url(#b)" d="M598 723l-598 .939V262.488L597 91.5l1 631.5z"/><path fill="#25DDF5" d="M0 334.72l299-91.137-51.136 101.137L0 407.72v-73z"/><linearGradient id="c" x1="1.079" x2="-.087" y1=".429" y2=".637" gradientTransform="matrix(211 0 0 136.083 384.276 91.5)" gradientUnits="userSpaceOnUse"><stop offset="0%" stop-color="#24c2f4"/><stop offset="100%" stop-color="#24d5f4"/></linearGradient><path fill="url(#c)" d="M412.5 144.75L595.276 91.5v75l-211 61.083L412.5 144.75z"/><linearGradient id="d" x1="1.03" x2="-.087" y1=".251" y2=".637" gradientTransform="matrix(211 0 0 152.727 368.73 443.182)" gradientUnits="userSpaceOnUse"><stop offset="1.304%" stop-color="#2196f3"/><stop offset="100%" stop-color="#24d5f4"/></linearGradient><path fill="url(#d)" d="M436.364 518.182l143.366-75v75l-169.64 62.491-41.36 15.236 67.634-77.727z"/><linearGradient id="e" x1="1.079" x2="-.087" y1=".429" y2=".637" gradientTransform="matrix(211 0 0 152.727 19.866 519.545)" gradientUnits="userSpaceOnUse"><stop offset="0%" stop-color="#24c2f4"/><stop offset="99.13%" stop-color="#22a7f3"/></linearGradient><path fill="url(#e)" d="M48.091 594.545l182.775-75-169.64 137.492-41.36 15.236 28.225-77.728z"/></g></svg>